<?xml version="1.0" encoding="UTF-8"?>
<svg xmlns="http://www.w3.org/2000/svg" xmlns:xlink="http://www.w3.org/1999/xlink" width="40px" height="20px" viewBox="0 0 39 20" version="1.1">
<g id="surface1">
<path style=" stroke:none;fill-rule:nonzero;fill:rgb(0%,0%,0%);fill-opacity:1;" d="M 13.691406 0.03125 C 13.675781 0.0507812 13.382812 0.1875 13.042969 0.339844 C 12.359375 0.644531 12.136719 0.773438 11.949219 0.957031 C 11.523438 1.375 11.601562 1.957031 12.191406 2.753906 C 12.328125 2.9375 12.402344 3.0625 12.402344 3.113281 C 12.402344 3.21875 12.332031 3.484375 12.28125 3.578125 C 12.15625 3.8125 11.417969 4.492188 11.167969 4.609375 C 11.054688 4.65625 11.011719 4.65625 10.542969 4.617188 C 9.726562 4.546875 9.628906 4.527344 9.128906 4.324219 C 8.53125 4.078125 8.445312 4.03125 7.996094 3.71875 C 7.757812 3.550781 7.550781 3.378906 7.453125 3.261719 C 7.179688 2.945312 6.871094 2.503906 6.671875 2.148438 C 6.28125 1.457031 6.242188 1.390625 6.144531 1.316406 C 5.847656 1.085938 5.375 1.0625 4.738281 1.25 C 4.253906 1.394531 3.566406 1.765625 3.339844 2.003906 C 3.289062 2.054688 3.179688 2.136719 3.085938 2.183594 C 2.832031 2.304688 2.570312 2.578125 2.347656 2.941406 C 1.933594 3.613281 0.871094 5.90625 0.78125 6.320312 C 0.714844 6.636719 0.671875 6.960938 0.625 7.625 C 0.5625 8.460938 0.507812 10.6875 0.523438 11.757812 C 0.53125 12.25 0.527344 12.714844 0.519531 12.792969 C 0.503906 12.871094 0.492188 12.902344 0.492188 12.863281 C 0.488281 12.8125 0.46875 12.792969 0.410156 12.792969 C 0.320312 12.792969 0.34375 12.671875 0.148438 14.246094 C 0.0429688 15.113281 0.00390625 15.550781 0.015625 15.667969 C 0.0429688 15.910156 0.148438 16.492188 0.199219 16.671875 C 0.324219 17.117188 0.644531 17.414062 1.15625 17.5625 C 1.925781 17.785156 7.566406 18.703125 8.179688 18.707031 C 8.355469 18.707031 8.648438 18.660156 9.203125 18.546875 C 10.605469 18.261719 11.625 18.144531 12.234375 18.203125 C 12.96875 18.269531 14.210938 18.488281 14.761719 18.648438 C 14.914062 18.695312 15.34375 18.855469 15.722656 19.003906 C 16.785156 19.425781 17.566406 19.640625 18.523438 19.773438 C 19.503906 19.914062 21.097656 19.976562 23.460938 19.976562 C 26.773438 19.976562 28.054688 19.785156 32.664062 18.628906 C 34.839844 18.082031 36.402344 17.636719 36.914062 17.414062 C 37.753906 17.046875 38.527344 16.464844 38.761719 16.019531 C 38.957031 15.652344 39.054688 14.53125 38.925781 14.105469 C 38.839844 13.816406 38.753906 13.667969 38.40625 13.230469 C 37.839844 12.511719 37.570312 12.265625 37.421875 12.3125 C 37.375 12.328125 37.359375 12.292969 37.3125 12.105469 C 37.179688 11.5625 36.859375 11.101562 36.417969 10.804688 C 36.074219 10.582031 35.21875 10.132812 35.023438 10.082031 C 34.78125 10.015625 33.964844 10.015625 33.363281 10.085938 C 33.121094 10.109375 32.621094 10.171875 32.25 10.214844 C 31.40625 10.308594 31.007812 10.316406 30.726562 10.226562 C 30.410156 10.128906 29.984375 9.890625 29.21875 9.390625 C 28.839844 9.144531 28.46875 8.902344 28.390625 8.855469 C 28.308594 8.808594 28.246094 8.75 28.246094 8.730469 C 28.246094 8.660156 28.09375 8.558594 27.992188 8.558594 C 27.871094 8.558594 24.796875 6.898438 24.679688 6.769531 C 24.625 6.707031 24.5625 6.675781 24.507812 6.675781 C 24.460938 6.675781 23.945312 6.414062 23.203125 6.011719 C 22.066406 5.390625 21.972656 5.335938 21.882812 5.203125 C 21.785156 5.066406 21.777344 5.0625 21.640625 5.074219 C 21.503906 5.082031 21.445312 5.054688 20.734375 4.667969 C 20.316406 4.445312 19.953125 4.242188 19.9375 4.226562 C 19.914062 4.207031 19.894531 4.15625 19.894531 4.113281 C 19.894531 4.011719 19.777344 3.886719 19.675781 3.882812 C 19.636719 3.882812 19.550781 3.890625 19.484375 3.902344 C 19.371094 3.925781 19.324219 3.902344 18.753906 3.59375 L 18.144531 3.261719 L 18.136719 3.136719 C 18.128906 3.070312 18.105469 2.992188 18.082031 2.964844 C 18.039062 2.917969 18.046875 2.910156 18.140625 2.890625 C 18.359375 2.847656 18.414062 2.589844 18.246094 2.414062 C 18.125 2.289062 17.816406 2.105469 17.53125 1.980469 C 16.835938 1.679688 16.378906 1.691406 15.960938 2.019531 L 15.816406 2.128906 L 15.546875 1.941406 C 15.140625 1.652344 14.757812 1.335938 14.464844 1.03125 C 14.144531 0.699219 13.980469 0.480469 13.855469 0.210938 C 13.75 -0.0078125 13.742188 -0.0195312 13.691406 0.03125 Z M 13.730469 0.347656 C 13.980469 0.835938 14.582031 1.453125 15.359375 2.011719 C 15.53125 2.136719 15.679688 2.242188 15.683594 2.242188 C 15.691406 2.246094 15.628906 2.34375 15.550781 2.464844 L 15.40625 2.683594 L 15.320312 2.640625 C 15.226562 2.589844 15.210938 2.617188 15.269531 2.726562 C 15.316406 2.816406 15.289062 2.820312 15.109375 2.769531 C 14.882812 2.699219 14.773438 2.707031 14.3125 2.824219 C 13.75 2.964844 13.425781 3.140625 13.09375 3.46875 C 12.953125 3.609375 12.902344 3.636719 12.691406 3.691406 C 12.554688 3.730469 12.425781 3.769531 12.398438 3.78125 C 12.359375 3.796875 12.371094 3.761719 12.433594 3.625 C 12.484375 3.527344 12.539062 3.347656 12.554688 3.226562 L 12.589844 3.007812 L 12.375 2.714844 C 12.25 2.554688 12.089844 2.296875 12.011719 2.136719 C 11.710938 1.519531 11.820312 1.148438 12.410156 0.832031 C 12.597656 0.730469 13.613281 0.257812 13.65625 0.25 C 13.667969 0.246094 13.703125 0.292969 13.730469 0.347656 Z M 5.761719 1.308594 C 5.855469 1.332031 5.976562 1.382812 6.03125 1.417969 C 6.121094 1.488281 6.160156 1.546875 6.550781 2.242188 C 6.746094 2.59375 7.136719 3.140625 7.386719 3.421875 C 7.511719 3.5625 7.636719 3.65625 8.257812 4.082031 C 8.347656 4.144531 8.664062 4.296875 8.957031 4.417969 C 9.558594 4.671875 9.6875 4.699219 10.523438 4.769531 C 11.003906 4.8125 11.085938 4.8125 11.175781 4.769531 C 11.234375 4.746094 11.285156 4.730469 11.292969 4.734375 C 11.308594 4.757812 10.394531 5.730469 10.152344 5.945312 C 9.21875 6.769531 8.246094 7.234375 7.328125 7.285156 C 6.738281 7.316406 6.253906 7.191406 5.867188 6.910156 C 5.644531 6.75 5.527344 6.621094 5.234375 6.21875 C 4.777344 5.59375 4.710938 5.417969 4.460938 4.140625 C 4.28125 3.230469 4.210938 2.953125 4.09375 2.699219 C 4.003906 2.507812 3.683594 2.1875 3.53125 2.144531 L 3.429688 2.113281 L 3.617188 1.972656 C 4 1.683594 4.648438 1.398438 5.117188 1.3125 C 5.414062 1.261719 5.550781 1.257812 5.761719 1.308594 Z M 16.957031 2.316406 C 17.074219 2.347656 17.222656 2.398438 17.292969 2.425781 C 17.398438 2.472656 17.402344 2.480469 17.351562 2.511719 C 17.265625 2.558594 16.882812 2.65625 16.777344 2.65625 C 16.683594 2.65625 16.300781 2.460938 16.300781 2.40625 C 16.300781 2.359375 16.542969 2.257812 16.652344 2.257812 C 16.703125 2.257812 16.839844 2.285156 16.957031 2.316406 Z M 3.601562 2.378906 C 3.949219 2.613281 4.039062 2.847656 4.296875 4.183594 C 4.535156 5.421875 4.640625 5.703125 5.089844 6.3125 C 5.613281 7.019531 5.976562 7.28125 6.605469 7.402344 C 6.902344 7.460938 7.488281 7.460938 7.796875 7.402344 C 8.324219 7.300781 8.980469 7.011719 9.523438 6.652344 C 9.949219 6.367188 10.300781 6.054688 10.878906 5.4375 C 11.167969 5.125 11.515625 4.757812 11.644531 4.621094 L 11.882812 4.371094 L 11.882812 4.527344 C 11.882812 4.671875 11.894531 4.695312 12.015625 4.8125 C 12.195312 4.988281 12.363281 5.097656 12.863281 5.359375 C 14.480469 6.210938 18.277344 7.714844 23.828125 9.703125 C 26.40625 10.628906 27.589844 11.027344 27.621094 10.992188 C 27.640625 10.96875 27.871094 10.585938 28.136719 10.136719 C 28.402344 9.683594 28.632812 9.296875 28.648438 9.277344 C 28.675781 9.246094 28.695312 9.25 28.757812 9.292969 C 29.824219 10.003906 30.371094 10.3125 30.753906 10.410156 C 31.128906 10.511719 31.414062 10.496094 32.921875 10.304688 C 33.691406 10.210938 34.5625 10.171875 34.875 10.226562 C 35.050781 10.257812 35.195312 10.316406 35.667969 10.570312 C 36.507812 11.027344 36.777344 11.25 36.992188 11.695312 C 37.082031 11.886719 37.261719 12.550781 37.261719 12.699219 C 37.261719 12.859375 37.128906 12.96875 36.6875 13.1875 C 36.1875 13.425781 36.101562 13.492188 36.011719 13.675781 C 35.953125 13.804688 35.945312 13.871094 35.945312 14.179688 C 35.945312 14.410156 35.96875 14.671875 36.011719 14.902344 C 36.042969 15.097656 36.074219 15.269531 36.074219 15.277344 C 36.074219 15.308594 35.796875 15.4375 35.496094 15.554688 C 34.890625 15.78125 34.183594 15.941406 33.441406 16.023438 C 32.671875 16.101562 32.300781 16.175781 31.140625 16.488281 C 29.875 16.824219 29.367188 16.90625 28.625 16.90625 C 28.050781 16.90625 27.902344 16.886719 24.757812 16.441406 C 22.855469 16.164062 21.921875 16.042969 21.335938 15.984375 C 20.757812 15.925781 20.976562 15.921875 17.367188 16.101562 C 14.925781 16.21875 14.265625 16.238281 12.429688 16.238281 C 10.667969 16.238281 10.523438 16.234375 9.980469 16.167969 C 8.273438 15.960938 5.597656 15.527344 3.886719 15.183594 C 2.515625 14.910156 1.882812 14.742188 1.578125 14.578125 C 1.429688 14.5 1.386719 14.457031 1.292969 14.285156 C 1.230469 14.179688 1.125 14.015625 1.050781 13.921875 C 0.976562 13.832031 0.890625 13.699219 0.851562 13.628906 C 0.710938 13.347656 0.699219 13.203125 0.699219 11.308594 C 0.699219 8.613281 0.785156 6.972656 0.960938 6.292969 C 1.054688 5.929688 2.042969 3.792969 2.414062 3.160156 C 2.628906 2.789062 2.929688 2.449219 3.117188 2.351562 C 3.300781 2.257812 3.4375 2.269531 3.601562 2.378906 Z M 16.261719 2.601562 L 16.378906 2.671875 L 16.210938 2.683594 C 16.019531 2.695312 16 2.679688 16.074219 2.597656 C 16.140625 2.523438 16.121094 2.519531 16.261719 2.601562 Z M 15.171875 3.324219 C 15.242188 3.351562 15.296875 3.382812 15.296875 3.394531 C 15.296875 3.402344 15.238281 3.484375 15.167969 3.578125 C 15.007812 3.792969 14.726562 4.03125 14.519531 4.132812 L 14.363281 4.207031 L 14.082031 4.035156 C 13.925781 3.941406 13.746094 3.835938 13.675781 3.796875 L 13.546875 3.734375 L 13.621094 3.675781 C 13.789062 3.539062 14.125 3.394531 14.464844 3.308594 C 14.839844 3.21875 14.910156 3.21875 15.171875 3.324219 Z M 17.640625 3.660156 C 17.640625 3.808594 17.632812 3.925781 17.625 3.925781 C 17.609375 3.925781 17.179688 3.675781 16.910156 3.511719 L 16.804688 3.445312 L 17.046875 3.425781 C 17.179688 3.417969 17.371094 3.410156 17.46875 3.40625 L 17.640625 3.398438 Z M 18.4375 3.742188 C 18.59375 3.808594 18.773438 3.898438 18.828125 3.933594 L 18.9375 4 L 18.664062 4.050781 C 18.511719 4.078125 18.328125 4.113281 18.261719 4.125 L 18.128906 4.148438 L 18.128906 3.882812 C 18.128906 3.734375 18.132812 3.617188 18.136719 3.617188 C 18.144531 3.617188 18.277344 3.671875 18.4375 3.742188 Z M 16.75 4.011719 C 17.003906 4.160156 17.214844 4.285156 17.214844 4.296875 C 17.214844 4.324219 16.5 4.445312 16.476562 4.421875 C 16.464844 4.414062 16.394531 4.246094 16.320312 4.054688 C 16.210938 3.78125 16.195312 3.707031 16.234375 3.722656 C 16.261719 3.734375 16.496094 3.863281 16.75 4.011719 Z M 12.75 3.964844 C 12.679688 4.136719 12.691406 4.386719 12.777344 4.515625 C 12.941406 4.761719 13.15625 4.835938 13.695312 4.832031 C 14.085938 4.828125 14.132812 4.820312 14.578125 4.675781 C 14.625 4.660156 14.621094 4.671875 14.554688 4.777344 C 14.515625 4.84375 14.472656 4.929688 14.460938 4.964844 C 14.433594 5.050781 14.484375 5.179688 14.578125 5.238281 C 14.648438 5.289062 14.683594 5.285156 15.183594 5.195312 L 15.710938 5.097656 L 15.984375 5.21875 C 16.265625 5.34375 16.28125 5.355469 16.390625 5.628906 L 16.449219 5.777344 L 16.679688 5.695312 L 16.902344 5.613281 L 17.273438 5.761719 L 17.640625 5.914062 L 17.640625 6.1875 C 17.640625 6.4375 17.648438 6.46875 17.71875 6.535156 C 17.757812 6.578125 17.820312 6.613281 17.859375 6.613281 C 17.902344 6.613281 18.109375 6.5625 18.328125 6.5 C 18.546875 6.441406 18.746094 6.390625 18.769531 6.386719 C 18.828125 6.382812 19.632812 6.707031 19.65625 6.746094 C 19.667969 6.761719 19.6875 6.910156 19.699219 7.074219 C 19.726562 7.433594 19.769531 7.5625 19.886719 7.589844 C 19.933594 7.601562 20.144531 7.597656 20.351562 7.578125 C 20.5625 7.558594 20.917969 7.523438 21.144531 7.507812 L 21.558594 7.46875 L 22.179688 7.710938 C 22.527344 7.84375 22.820312 7.964844 22.839844 7.980469 C 22.859375 7.992188 22.984375 8.207031 23.125 8.460938 C 23.261719 8.710938 23.40625 8.945312 23.441406 8.984375 C 23.5 9.054688 23.507812 9.054688 24.453125 9.054688 L 25.40625 9.054688 L 25.707031 9.585938 C 25.867188 9.878906 26.042969 10.15625 26.085938 10.203125 C 26.234375 10.359375 26.234375 10.359375 27.269531 9.636719 C 27.433594 9.523438 27.449219 9.519531 27.878906 9.476562 C 28.121094 9.453125 28.328125 9.4375 28.332031 9.445312 C 28.351562 9.460938 27.542969 10.816406 27.519531 10.816406 C 27.460938 10.816406 24.039062 9.605469 22.105469 8.898438 C 16.203125 6.75 12.789062 5.316406 12.140625 4.710938 C 12.050781 4.625 12.035156 4.59375 12.035156 4.472656 C 12.035156 4.257812 12.078125 4.183594 12.269531 4.058594 C 12.417969 3.960938 12.761719 3.820312 12.789062 3.84375 C 12.792969 3.851562 12.777344 3.902344 12.75 3.964844 Z M 13.859375 4.101562 L 14.152344 4.277344 L 14.046875 4.304688 C 13.898438 4.339844 13.265625 4.320312 13.21875 4.273438 C 13.175781 4.226562 13.230469 4.085938 13.335938 3.953125 C 13.425781 3.847656 13.441406 3.851562 13.859375 4.101562 Z M 15.84375 4.21875 C 15.910156 4.386719 15.960938 4.523438 15.960938 4.53125 C 15.941406 4.546875 15.253906 4.667969 15.242188 4.652344 C 15.234375 4.648438 15.335938 4.472656 15.464844 4.265625 C 15.59375 4.0625 15.703125 3.898438 15.710938 3.902344 C 15.714844 3.910156 15.777344 4.050781 15.84375 4.21875 Z M 19.441406 4.519531 C 19.441406 4.558594 19.464844 4.824219 19.496094 5.109375 C 19.535156 5.464844 19.539062 5.632812 19.519531 5.644531 C 19.5 5.648438 19.214844 5.730469 18.878906 5.820312 C 18.074219 6.046875 18.128906 6.074219 18.128906 5.414062 C 18.128906 4.976562 18.136719 4.910156 18.175781 4.925781 C 18.199219 4.933594 18.238281 4.949219 18.261719 4.960938 C 18.292969 4.976562 18.488281 4.761719 18.578125 4.613281 C 18.601562 4.578125 19.160156 4.460938 19.339844 4.453125 C 19.425781 4.449219 19.4375 4.460938 19.441406 4.519531 Z M 20.53125 4.945312 C 20.765625 5.085938 20.960938 5.210938 20.960938 5.222656 C 20.960938 5.242188 20.074219 5.496094 20.050781 5.480469 C 20.042969 5.472656 19.960938 4.753906 19.957031 4.652344 C 19.957031 4.601562 19.964844 4.601562 20.027344 4.640625 C 20.0625 4.667969 20.289062 4.800781 20.53125 4.945312 Z M 17.640625 5.238281 C 17.640625 5.5 17.632812 5.71875 17.621094 5.71875 C 17.605469 5.71875 17.425781 5.644531 17.21875 5.554688 L 16.835938 5.390625 L 16.75 5.179688 C 16.707031 5.0625 16.667969 4.957031 16.667969 4.945312 C 16.667969 4.925781 17.449219 4.769531 17.589844 4.761719 C 17.636719 4.757812 17.640625 4.800781 17.640625 5.238281 Z M 16.179688 5.082031 C 16.179688 5.125 16.167969 5.125 16.113281 5.097656 C 16.007812 5.042969 16.007812 5.035156 16.097656 5.035156 C 16.152344 5.035156 16.179688 5.050781 16.179688 5.082031 Z M 21.648438 5.808594 C 21.980469 6.394531 22.242188 6.871094 22.234375 6.878906 C 22.230469 6.882812 21.917969 6.914062 21.542969 6.949219 L 20.855469 7.019531 L 20.523438 6.886719 C 20.140625 6.730469 20.15625 6.757812 20.125 6.292969 L 20.101562 6.007812 L 20.523438 5.890625 C 20.757812 5.824219 21.058594 5.742188 21.191406 5.703125 C 21.324219 5.660156 21.460938 5.628906 21.492188 5.632812 C 21.527344 5.636719 21.589844 5.703125 21.648438 5.808594 Z M 22.984375 6.402344 L 23.566406 6.753906 L 23.355469 6.773438 C 23.238281 6.78125 23.066406 6.800781 22.96875 6.8125 L 22.796875 6.832031 L 22.636719 6.546875 C 22.550781 6.386719 22.449219 6.210938 22.417969 6.15625 C 22.386719 6.101562 22.367188 6.058594 22.378906 6.058594 C 22.390625 6.058594 22.664062 6.214844 22.984375 6.402344 Z M 19.625 6.339844 C 19.632812 6.429688 19.640625 6.511719 19.632812 6.515625 C 19.621094 6.53125 19.105469 6.324219 19.105469 6.300781 C 19.105469 6.28125 19.53125 6.15625 19.578125 6.164062 C 19.59375 6.167969 19.617188 6.246094 19.625 6.339844 Z M 20.367188 7 C 20.425781 7.023438 20.476562 7.050781 20.476562 7.0625 C 20.476562 7.070312 20.414062 7.078125 20.339844 7.078125 C 20.222656 7.078125 20.199219 7.066406 20.199219 7.015625 C 20.199219 6.941406 20.222656 6.9375 20.367188 7 Z M 24.382812 7.253906 C 24.433594 7.316406 25.105469 8.511719 25.105469 8.542969 C 25.105469 8.550781 25.046875 8.558594 24.976562 8.558594 C 24.890625 8.558594 24.628906 8.472656 24.15625 8.292969 L 23.460938 8.023438 L 23.265625 7.683594 C 23.164062 7.492188 23.082031 7.332031 23.085938 7.324219 C 23.101562 7.308594 23.996094 7.210938 24.195312 7.203125 C 24.296875 7.199219 24.347656 7.214844 24.382812 7.253906 Z M 22.617188 7.542969 C 22.664062 7.628906 22.699219 7.707031 22.691406 7.714844 C 22.6875 7.71875 22.542969 7.671875 22.375 7.605469 C 21.914062 7.425781 21.933594 7.4375 22.074219 7.417969 C 22.140625 7.402344 22.273438 7.390625 22.363281 7.390625 L 22.53125 7.386719 Z M 26.128906 7.996094 C 26.628906 8.277344 27.054688 8.515625 27.070312 8.53125 C 27.085938 8.546875 27.066406 8.558594 27.011719 8.558594 C 26.957031 8.558594 26.613281 8.375 26.042969 8.03125 C 25.550781 7.742188 25.128906 7.480469 25.105469 7.457031 C 25.046875 7.390625 25.03125 7.386719 26.128906 7.996094 Z M 25.898438 8.144531 C 26.210938 8.324219 26.488281 8.496094 26.523438 8.515625 C 26.574219 8.554688 26.519531 8.558594 26.140625 8.558594 L 25.699219 8.558594 L 25.503906 8.203125 C 25.289062 7.816406 25.269531 7.773438 25.308594 7.792969 C 25.324219 7.804688 25.585938 7.960938 25.898438 8.144531 Z M 26.996094 8.265625 C 26.996094 8.277344 26.941406 8.253906 26.875 8.21875 C 26.804688 8.1875 26.75 8.148438 26.75 8.144531 C 26.75 8.132812 26.804688 8.15625 26.875 8.1875 C 26.941406 8.222656 26.996094 8.261719 26.996094 8.265625 Z M 23.996094 8.410156 L 24.328125 8.542969 L 24.074219 8.554688 C 23.933594 8.558594 23.800781 8.558594 23.777344 8.546875 C 23.730469 8.527344 23.601562 8.28125 23.632812 8.28125 C 23.648438 8.28125 23.808594 8.339844 23.996094 8.410156 Z M 27.5 8.554688 C 27.484375 8.566406 27.027344 8.3125 27.027344 8.292969 C 27.027344 8.285156 27.136719 8.335938 27.269531 8.410156 C 27.402344 8.484375 27.507812 8.542969 27.5 8.554688 Z M 27.101562 9.132812 C 27.054688 9.171875 26.96875 9.230469 26.917969 9.257812 C 26.820312 9.3125 26.816406 9.3125 26.511719 9.195312 C 26.34375 9.132812 26.203125 9.074219 26.203125 9.066406 C 26.203125 9.0625 26.425781 9.054688 26.699219 9.054688 L 27.195312 9.058594 Z M 28.246094 9.179688 C 28.4375 9.285156 28.441406 9.292969 28.398438 9.359375 C 28.367188 9.414062 28.304688 9.390625 28.09375 9.253906 C 27.988281 9.191406 27.972656 9.164062 28 9.128906 C 28.050781 9.074219 28.039062 9.070312 28.246094 9.179688 Z M 26.566406 9.402344 L 26.667969 9.441406 L 26.5 9.554688 L 26.328125 9.667969 L 26.210938 9.460938 C 26.148438 9.347656 26.09375 9.246094 26.085938 9.234375 C 26.078125 9.210938 26.300781 9.289062 26.566406 9.402344 Z M 27.816406 9.300781 C 27.816406 9.316406 27.804688 9.332031 27.789062 9.332031 C 27.773438 9.332031 27.757812 9.316406 27.757812 9.300781 C 27.757812 9.28125 27.773438 9.269531 27.789062 9.269531 C 27.804688 9.269531 27.816406 9.28125 27.816406 9.300781 Z M 27.816406 9.300781 "/>
<path style=" stroke:none;fill-rule:nonzero;fill:rgb(0%,0%,0%);fill-opacity:1;" d="M 13.164062 6.054688 C 12.929688 6.125 12.78125 6.257812 12.308594 6.8125 C 12.121094 7.035156 11.910156 7.269531 11.839844 7.332031 C 11.65625 7.503906 11.253906 7.777344 10.785156 8.050781 C 10.394531 8.277344 9.070312 8.960938 8.601562 9.179688 C 8.375 9.28125 8.324219 9.335938 8.390625 9.390625 C 8.414062 9.410156 9.417969 9.664062 10.621094 9.953125 C 16.238281 11.304688 15.875 11.21875 16.863281 11.339844 C 18.605469 11.546875 20.628906 11.65625 22.714844 11.660156 C 24.722656 11.660156 25.570312 11.566406 25.640625 11.339844 C 25.691406 11.175781 25.480469 11.085938 24.410156 10.816406 C 23.945312 10.699219 23.472656 10.570312 23.355469 10.527344 C 23.238281 10.488281 22.703125 10.246094 22.167969 9.996094 C 16.820312 7.503906 13.484375 6.011719 13.273438 6.027344 C 13.253906 6.027344 13.207031 6.042969 13.164062 6.054688 Z M 13.535156 6.285156 C 14.367188 6.605469 17.109375 7.839844 21.527344 9.890625 C 22.414062 10.300781 23.21875 10.664062 23.308594 10.699219 C 23.398438 10.730469 23.832031 10.847656 24.269531 10.957031 C 25.226562 11.199219 25.46875 11.277344 25.402344 11.3125 C 25.375 11.328125 25.222656 11.363281 25.058594 11.386719 C 23.882812 11.566406 20.285156 11.503906 17.777344 11.265625 C 16.335938 11.125 15.96875 11.0625 14.578125 10.726562 C 14.160156 10.628906 12.734375 10.285156 11.410156 9.964844 C 10.089844 9.648438 8.941406 9.371094 8.867188 9.351562 L 8.730469 9.3125 L 9.398438 8.984375 C 10.128906 8.621094 10.769531 8.273438 11.199219 8.011719 C 11.742188 7.671875 11.964844 7.476562 12.441406 6.921875 C 12.902344 6.386719 13.105469 6.210938 13.257812 6.210938 C 13.304688 6.210938 13.429688 6.246094 13.535156 6.285156 Z M 13.535156 6.285156 "/>
<path style=" stroke:none;fill-rule:nonzero;fill:rgb(0%,0%,0%);fill-opacity:1;" d="M 34.363281 10.851562 C 34.335938 10.867188 34.210938 10.886719 34.089844 10.894531 C 33.964844 10.90625 33.34375 10.957031 32.707031 11.015625 C 31.847656 11.089844 31.542969 11.109375 31.527344 11.085938 C 31.515625 11.0625 31.503906 11.074219 31.503906 11.113281 C 31.503906 11.273438 31.152344 11.457031 30.484375 11.65625 C 30.316406 11.703125 29.617188 11.875 28.933594 12.035156 C 27.542969 12.363281 26.890625 12.546875 26.480469 12.726562 C 26.125 12.882812 26.03125 12.945312 26.085938 12.980469 C 26.320312 13.140625 30.667969 12.128906 33.121094 11.351562 C 33.621094 11.191406 34.296875 10.929688 34.382812 10.863281 C 34.453125 10.8125 34.4375 10.804688 34.363281 10.851562 Z M 34.363281 10.851562 "/>
</g>
</svg>
